<!DOCTYPE svg PUBLIC "-//W3C//DTD SVG 1.1//EN" "http://www.w3.org/Graphics/SVG/1.1/DTD/svg11.dtd">
<!-- Uploaded to: SVG Repo, www.svgrepo.com, Transformed by: SVG Repo Mixer Tools -->
<svg height="800px" width="800px" version="1.1" id="Capa_1" xmlns="http://www.w3.org/2000/svg" xmlns:xlink="http://www.w3.org/1999/xlink" viewBox="-29.24 -29.24 350.86 350.86" xml:space="preserve" fill="#747474" stroke="#747474">
<g id="SVGRepo_bgCarrier" stroke-width="0" transform="translate(0,0), scale(1)">
<path transform="translate(-29.24, -29.24), scale(21.92875)" fill="#86efac" d="M9.166.33a2.25 2.25 0 00-2.332 0l-5.25 3.182A2.25 2.25 0 00.5 5.436v5.128a2.25 2.25 0 001.084 1.924l5.25 3.182a2.25 2.25 0 002.332 0l5.25-3.182a2.25 2.25 0 001.084-1.924V5.436a2.25 2.25 0 00-1.084-1.924L9.166.33z" strokewidth="0"/>
</g>
<g id="SVGRepo_tracerCarrier" stroke-linecap="round" stroke-linejoin="round"/>
<g id="SVGRepo_iconCarrier"> <g> <path style="fill:#010002;" d="M146.188,0C65.576,0,0,65.582,0,146.188s65.576,146.188,146.188,146.188 s146.188-65.582,146.188-146.188S226.801,0,146.188,0z M194.962,152.155h-42.806v42.8c0,3.3-2.667,5.967-5.967,5.967 c-3.3,0-5.967-2.667-5.967-5.967v-42.8H97.415c-3.294,0-5.967-2.673-5.967-5.967s2.673-5.967,5.967-5.967h42.806V97.415 c0-3.294,2.667-5.967,5.967-5.967c3.3,0,5.967,2.673,5.967,5.967v42.806h42.806c3.3,0,5.967,2.673,5.967,5.967 S198.261,152.155,194.962,152.155z"/> </g> </g>
</svg>